<?xml version="1.0" encoding="UTF-8"?>
<svg id="Layer_2" data-name="Layer 2" xmlns="http://www.w3.org/2000/svg" viewBox="0 0 172.94 172.95">
  <defs>
    <style>
      .cls-1 {
        fill: #171717;
      }

      .cls-1, .cls-2 {
        stroke-width: 0px;
      }

      .cls-2 {
        fill: #f4f2f4;
      }
    </style>
  </defs>
  <g id="Layer_1-2" data-name="Layer 1">
    <g>
      <path class="cls-2" d="M43.59,103.51c-.2.39-.83.46-1.4.16-.58-.29-.9-.84-.7-1.23.2-.39.83-.46,1.4-.16.58.3.9.85.7,1.23Z"/>
      <path class="cls-2" d="M46.38,105.08c.5.46.66,1.1.36,1.43-.31.33-.96.22-1.46-.23-.51-.46-.67-1.1-.36-1.43.3-.34.95-.23,1.46.23Z"/>
      <path class="cls-2" d="M49.51,109.66c.41.58.44,1.27.06,1.54-.38.27-1.03.02-1.45-.56-.42-.58-.44-1.28-.06-1.55.38-.27,1.03-.02,1.45.57Z"/>
      <path class="cls-2" d="M53.64,114.74c-.26.42-1,.44-1.64.04-.65-.39-.97-1.05-.71-1.47s1-.44,1.64-.05c.65.4.97,1.06.71,1.48Z"/>
      <path class="cls-2" d="M59.05,117.44c-.07.51-.77.86-1.57.76-.8-.1-1.39-.6-1.32-1.12.06-.52.76-.85,1.56-.76.8.1,1.39.6,1.33,1.12Z"/>
      <path class="cls-2" d="M65.29,118.19c-.04.55-.75.95-1.61.91-.85-.05-1.51-.54-1.48-1.09.03-.55.75-.96,1.6-.91.86.05,1.52.54,1.49,1.09Z"/>
      <path class="cls-2" d="M71.18,117.45c0,.59-.74,1.06-1.64,1.06s-1.65-.47-1.65-1.06.74-1.05,1.65-1.05,1.64.47,1.64,1.05Z"/>
      <path class="cls-2" d="M0,0v172.95h172.94V0H0ZM103.74,103.85c3.17,3.36,5.15,7.87,5.15,12.86v21.8c0,2.4,2.2,4.22,4.47,3.81-7.31,2.45-15.11,3.69-23.25,3.69s-15.94-1.24-23.24-3.7c2.27.42,4.47-1.4,4.47-3.8v-14.09c-2.91.41-6.36.84-7.82.77-4.23-.19-8.14-.86-10.1-2.03-2.28-1.37-5.48-3.91-6.41-5.95-1.33-2.89-1.64-4.35-3.21-6.88-1.41-2.27-3.83-4.62-5.4-5.48-1.57-.86-3.05-2.03-3.37-2.81-.31-.79.39-1.88,1.88-2.12,1.49-.23,4.15.24,6.89,1.49,2.07.95,4.36,3.63,5.94,5.94,1.88,2.75,4.38,5.56,6.5,6.81,2.11,1.25,6.49,1.88,10.64,1.25,1.61-.24,3.28-.84,4.74-1.48.58-3.88,2.31-7.38,4.89-10.1-22.12-2.71-34.26-12.97-34.26-35.44,0-8.66,2.89-15.82,7.81-21.42-.56-1.23-1.15-2.9-1.44-5.01-.64-4.69.12-7.51.77-10.27.64-2.75,1.4-4.69,1.4-4.69,0,0,3.47-.36,6.4.64,2.93,1,5.46,1.76,9.1,3.94,1.71,1.02,3.43,2.14,4.79,3.04,5.84-1.62,12.27-2.45,19.03-2.45s13.08.83,18.88,2.44c1.35-.91,3.07-2.02,4.77-3.03,3.64-2.17,6.16-2.93,9.09-3.93,2.94-1,6.4-.65,6.4-.65,0,0,.76,1.94,1.41,4.7.64,2.75,1.41,5.57.76,10.26-.28,2.06-.85,3.7-1.39,4.92,5.01,5.64,7.95,12.84,7.95,21.51,0,22.81-12.29,32.82-34.24,35.46Z"/>
      <path class="cls-1" d="M137.98,68.39c0-8.67-2.94-15.87-7.95-21.51.54-1.22,1.11-2.86,1.39-4.92.65-4.69-.12-7.51-.76-10.26-.65-2.76-1.41-4.7-1.41-4.7,0,0-3.46-.35-6.4.65-2.93,1-5.45,1.76-9.09,3.93-1.7,1.01-3.42,2.12-4.77,3.03-5.8-1.61-12.17-2.44-18.88-2.44s-13.19.83-19.03,2.45c-1.36-.9-3.08-2.02-4.79-3.04-3.64-2.18-6.17-2.94-9.1-3.94-2.93-1-6.4-.64-6.4-.64,0,0-.76,1.94-1.4,4.69-.65,2.76-1.41,5.58-.77,10.27.29,2.11.88,3.78,1.44,5.01-4.92,5.6-7.81,12.76-7.81,21.42,0,22.47,12.14,32.73,34.26,35.44-2.58,2.72-4.31,6.22-4.89,10.1-1.46.64-3.13,1.24-4.74,1.48-4.15.63-8.53,0-10.64-1.25-2.12-1.25-4.62-4.06-6.5-6.81-1.58-2.31-3.87-4.99-5.94-5.94-2.74-1.25-5.4-1.72-6.89-1.49-1.49.24-2.19,1.33-1.88,2.12.32.78,1.8,1.95,3.37,2.81,1.57.86,3.99,3.21,5.4,5.48,1.57,2.53,1.88,3.99,3.21,6.88.93,2.04,4.13,4.58,6.41,5.95,1.96,1.17,5.87,1.84,10.1,2.03,1.46.07,4.91-.36,7.82-.77v14.09c0,2.4-2.2,4.22-4.47,3.8,7.3,2.46,15.1,3.7,23.24,3.7s15.94-1.24,23.25-3.69c-2.27.41-4.47-1.41-4.47-3.81v-21.8c0-4.99-1.98-9.5-5.15-12.86,21.95-2.64,34.24-12.65,34.24-35.46ZM43.59,103.51c-.2.39-.83.46-1.4.16-.58-.29-.9-.84-.7-1.23.2-.39.83-.46,1.4-.16.58.3.9.85.7,1.23ZM46.74,106.51c-.31.33-.96.22-1.46-.23-.51-.46-.67-1.1-.36-1.43.3-.34.95-.23,1.46.23.5.46.66,1.1.36,1.43ZM49.57,111.2c-.38.27-1.03.02-1.45-.56-.42-.58-.44-1.28-.06-1.55.38-.27,1.03-.02,1.45.57.41.58.44,1.27.06,1.54ZM53.64,114.74c-.26.42-1,.44-1.64.04-.65-.39-.97-1.05-.71-1.47s1-.44,1.64-.05c.65.4.97,1.06.71,1.48ZM57.48,118.2c-.8-.1-1.39-.6-1.32-1.12.06-.52.76-.85,1.56-.76.8.1,1.39.6,1.33,1.12-.07.51-.77.86-1.57.76ZM63.68,119.1c-.85-.05-1.51-.54-1.48-1.09.03-.55.75-.96,1.6-.91.86.05,1.52.54,1.49,1.09-.04.55-.75.95-1.61.91ZM69.54,118.51c-.91,0-1.65-.47-1.65-1.06s.74-1.05,1.65-1.05,1.64.47,1.64,1.05-.74,1.06-1.64,1.06Z"/>
    </g>
  </g>
</svg>