<?xml version="1.0" encoding="UTF-8"?>
<svg id="Layer_2" data-name="Layer 2" xmlns="http://www.w3.org/2000/svg" viewBox="0 0 172.94 172.95">
  <defs>
    <style>
      .cls-1 {
        fill: #171717;
      }

      .cls-1, .cls-2 {
        stroke-width: 0px;
      }

      .cls-2 {
        fill: #f4f2f4;
      }
    </style>
  </defs>
  <g id="Layer_1-2" data-name="Layer 1">
    <g>
      <circle class="cls-1" cx="42.83" cy="42.7" r="13.52"/>
      <path class="cls-2" d="M0,0v172.95h172.94V0H0ZM54.66,141.5h-23.19v-74.62h23.19v74.62ZM42.83,56.22c-7.48,0-13.52-6.06-13.52-13.52s6.06-13.52,13.52-13.52,13.52,6.07,13.52,13.52-6.07,13.52-13.52,13.52ZM141.52,141.5h-23.16v-36.29c0-8.65-.17-19.78-12.05-19.78s-13.93,9.42-13.93,19.16v36.91h-23.17v-74.62h22.24v10.2h.32c3.09-5.86,10.66-12.05,21.94-12.05,23.48,0,27.81,15.46,27.81,35.55v40.92Z"/>
      <rect class="cls-1" x="31.47" y="66.88" width="23.19" height="74.62"/>
      <path class="cls-1" d="M141.52,100.58v40.92h-23.16v-36.29c0-8.65-.17-19.78-12.05-19.78s-13.93,9.42-13.93,19.16v36.91h-23.17v-74.62h22.24v10.2h.32c3.09-5.86,10.66-12.05,21.94-12.05,23.48,0,27.81,15.46,27.81,35.55Z"/>
    </g>
  </g>
</svg>