<svg width="56" height="39" viewBox="0 0 56 39" fill="none" xmlns="http://www.w3.org/2000/svg">
<path d="M42.3323 22.1705L41.9011 21.5303C38.7514 16.866 37.028 13.8483 39.6611 11.2722C43.4725 7.54334 48.12 11.7114 49.0119 12.5841C52.9207 16.4082 53.4231 20.4485 50.3885 23.6672L49.8112 24.2795L52.4099 26.822L53.0359 26.1527C57.4898 21.3885 56.9018 15.5832 51.4242 10.2241C47.4715 6.35695 41.4985 4.3955 37.0648 8.73206C32.2902 13.4033 35.9187 18.7973 38.5696 22.7353L38.844 23.1408C42.1078 27.9712 43.8822 31.1063 41.0282 33.8985C36.8095 38.0259 31.5859 33.1549 31.0051 32.5866C30.7961 32.3821 30.5918 32.173 30.3911 31.958C30.1559 31.707 29.9243 31.4456 29.7046 31.183C29.4849 30.9203 29.2759 30.6531 29.0834 30.3893C28.8875 30.1209 28.7022 29.8501 28.5335 29.5829C28.3625 29.3121 28.2034 29.0379 28.0608 28.7683C27.9171 28.4953 27.7853 28.2199 27.6713 27.948C27.5561 27.6761 27.4539 27.4007 27.3684 27.1299C27.2829 26.858 27.2116 26.5838 27.1582 26.3154C27.1035 26.0435 27.0655 25.7727 27.0442 25.5089C27.0228 25.2417 27.0168 24.9733 27.0287 24.713C27.0406 24.4469 27.0703 24.1819 27.1166 23.9251C27.1641 23.6614 27.2306 23.3988 27.3138 23.1443C27.3993 22.8828 27.5038 22.6225 27.6273 22.3681C28.0727 21.4466 28.7889 20.6797 29.5692 19.8442C30.4671 18.8821 31.1013 18.0001 31.5669 17.067C31.7273 16.7463 31.8686 16.4175 31.9898 16.0898C32.1097 15.7645 32.2107 15.4321 32.2902 15.1033C32.3698 14.7756 32.4304 14.4421 32.4708 14.1109C32.5112 13.7856 32.5325 13.4521 32.5349 13.1186C32.5373 12.7932 32.5218 12.4609 32.4874 12.1321C32.4541 11.809 32.4019 11.4802 32.3342 11.1537C32.2665 10.8341 32.181 10.5099 32.08 10.1892C31.9814 9.87547 31.8639 9.55592 31.7308 9.23985C31.6014 8.93076 31.4541 8.61703 31.2938 8.30793C31.1358 8.00465 30.9612 7.69789 30.7735 7.39461C30.5883 7.09597 30.3875 6.79502 30.1749 6.50103C29.9659 6.21053 29.7402 5.91655 29.5039 5.62838C29.2711 5.34369 29.0217 5.05784 28.764 4.7778C28.5086 4.50124 28.2402 4.22352 27.9646 3.95394C24.0119 0.0868242 18.039 -1.87462 13.6053 2.46194C8.82953 7.13432 12.458 12.526 15.1065 16.4628L15.3797 16.8672C18.6447 21.6999 20.4227 24.8361 17.5675 27.6284C13.3487 31.7558 8.12522 26.8847 7.54443 26.3165C4.90535 23.7346 3.49198 20.9713 3.56324 18.537C3.61788 16.6906 4.51341 14.9964 6.22608 13.5032L6.92682 12.892L4.30081 10.3228L3.6737 10.9224C1.25197 13.2418 0.015573 15.8179 0.000132843 18.5788C-0.0176827 21.8835 1.75675 25.3753 5.13101 28.6765C9.11695 32.5762 15.5199 34.705 20.159 30.1651C25.1795 25.2533 21.5332 19.8454 18.8716 15.8981L18.4416 15.2601C15.2894 10.5936 13.5649 7.57472 16.198 4.99857C20.0094 1.26973 24.6581 5.44013 25.5512 6.31395C25.8042 6.56146 26.0465 6.81477 26.2721 7.06576C26.5156 7.33767 26.746 7.61306 26.9574 7.88729C27.1677 8.16036 27.3636 8.43808 27.5418 8.71347C27.7176 8.98654 27.8803 9.26542 28.0228 9.53965C28.1653 9.81272 28.2924 10.0893 28.4005 10.3623C28.5086 10.6331 28.6 10.9085 28.6737 11.1781C28.7461 11.4453 28.8031 11.7172 28.8412 11.9833C28.8792 12.2494 28.9005 12.5167 28.9041 12.7793C28.9077 13.0431 28.8934 13.308 28.8613 13.566C28.8293 13.8262 28.7794 14.0877 28.7117 14.3433C28.4623 15.2869 27.9492 16.1979 27.1439 17.131C27.0133 17.282 26.8814 17.4331 26.7508 17.5818C25.9728 18.4696 25.1688 19.3876 24.5714 20.517C24.2839 21.0655 24.0488 21.629 23.8718 22.1984C23.6996 22.7655 23.5808 23.336 23.519 23.8949C23.4573 24.4631 23.4478 25.0337 23.4905 25.5856C23.5274 26.1294 23.6164 26.693 23.7566 27.2647C23.8932 27.8155 24.0737 28.3674 24.2946 28.902C24.5096 29.4272 24.7649 29.9489 25.0738 30.4962C25.36 31.0028 25.683 31.5072 26.0667 32.044C26.4265 32.5402 26.8244 33.0387 27.2496 33.5279C27.676 34.0171 28.1285 34.4946 28.5929 34.949C32.58 38.8498 38.9841 40.9797 43.6245 36.441C48.6449 31.5292 44.9963 26.1201 42.3347 22.1717L42.3323 22.1705Z" fill="#F4F2F4"/>
</svg>
